<?xml version="1.0" encoding="UTF-8"?>
<svg version="1.1" xmlns="http://www.w3.org/2000/svg" width="512" height="512">
<path d="M0 0 C1.01823853 0.00215515 2.03647705 0.0043103 3.08557129 0.00653076 C17.7097884 0.05623391 32.00304638 0.37042012 46.375 3.3125 C47.37160645 3.50585938 48.36821289 3.69921875 49.39501953 3.8984375 C97.79648057 13.46213524 141.99059771 35.87987765 177.375 70.3125 C178.37877686 71.27760498 178.37877686 71.27760498 179.40283203 72.26220703 C188.33991207 80.87657599 196.74206664 89.58564609 204.10107422 99.59423828 C205.39750666 101.34285682 206.72788718 103.06078803 208.06640625 104.77734375 C215.93067241 114.9920598 222.3161092 125.94975258 228.375 137.3125 C229.03846436 138.55314209 229.03846436 138.55314209 229.71533203 139.81884766 C241.23204842 161.72199262 248.9030584 186.01309889 253.375 210.3125 C253.53581055 211.11316895 253.69662109 211.91383789 253.86230469 212.73876953 C259.3544441 240.81662453 259.10896692 274.30227935 253.375 302.3125 C253.18164062 303.30910645 252.98828125 304.30571289 252.7890625 305.33251953 C244.67028127 346.42132055 227.30084885 383.51549494 201.375 416.3125 C200.56289063 417.35019531 199.75078125 418.38789063 198.9140625 419.45703125 C186.24907313 435.01858759 171.69874403 449.61464417 155.375 461.3125 C154.02974408 462.30180622 152.68470229 463.29140366 151.33984375 464.28125 C120.03306909 487.08129792 84.47487825 502.30078684 46.375 509.3125 C45.57433105 509.47331055 44.77366211 509.63412109 43.94873047 509.79980469 C15.88172956 515.289821 -17.62684244 515.06193715 -45.625 509.3125 C-46.63755859 509.11382324 -47.65011719 508.91514648 -48.69335938 508.71044922 C-89.78600049 500.49315205 -126.72136417 483.05232803 -159.625 457.3125 C-160.16415039 456.89339355 -160.70330078 456.47428711 -161.25878906 456.04248047 C-177.49886305 443.27946125 -192.56962343 428.08823511 -204.625 411.3125 C-205.4887527 410.14261544 -206.35335469 408.9733575 -207.21875 407.8046875 C-222.36207742 387.1786757 -234.4442165 364.56952873 -242.625 340.3125 C-243.03806396 339.08998535 -243.03806396 339.08998535 -243.45947266 337.84277344 C-246.69755506 328.07192323 -249.22985473 318.19031263 -251.375 308.125 C-251.57375732 307.20033936 -251.77251465 306.27567871 -251.97729492 305.32299805 C-255.26999027 289.11638823 -256.00030278 273.1821298 -255.9375 256.6875 C-255.93534485 255.66926147 -255.9331897 254.65102295 -255.93096924 253.60192871 C-255.88127396 238.98002576 -255.57561242 224.68116068 -252.625 210.3125 C-252.42632324 209.29994141 -252.22764648 208.28738281 -252.02294922 207.24414062 C-244.65299943 170.38887112 -229.85817801 135.66776148 -207.625 105.3125 C-207.20895508 104.73951172 -206.79291016 104.16652344 -206.36425781 103.57617188 C-200.49310994 95.54000912 -194.07484879 88.12334895 -187.18798828 80.94287109 C-186.12167192 79.83058421 -185.06034402 78.71349879 -184.00341797 77.59228516 C-182.40968175 75.90415474 -180.80135226 74.23138708 -179.1875 72.5625 C-178.46167725 71.79184204 -178.46167725 71.79184204 -177.72119141 71.00561523 C-174.81479301 68.05224168 -172.80909283 66.49357357 -168.625 66.3125 C-167.67367187 66.54839844 -166.72234375 66.78429687 -165.7421875 67.02734375 C-161.35325264 67.42883779 -159.04136305 65.47011318 -155.75 62.875 C-154.86054688 62.25334961 -154.86054688 62.25334961 -153.953125 61.61914062 C-151.96480729 60.17874542 -151.96480729 60.17874542 -149.625 57.3125 C-149.3638352 55.33720521 -149.3638352 55.33720521 -149.5546875 53.27734375 C-149.625 49.3125 -149.625 49.3125 -147.5234375 46.59765625 C-119.35033213 24.3857066 -84.07142368 11.14042668 -49.1875 4 C-48.46860596 3.85264404 -47.74971191 3.70528809 -47.0090332 3.5534668 C-31.36274321 0.57960898 -15.88931915 -0.06049808 0 0 Z " fill="#F9A200" transform="translate(255.625,-0.3125)"/>
<path d="M0 0 C1.01823853 0.00215515 2.03647705 0.0043103 3.08557129 0.00653076 C17.7097884 0.05623391 32.00304638 0.37042012 46.375 3.3125 C47.37160645 3.50585938 48.36821289 3.69921875 49.39501953 3.8984375 C97.79648057 13.46213524 141.99059771 35.87987765 177.375 70.3125 C178.37877686 71.27760498 178.37877686 71.27760498 179.40283203 72.26220703 C188.33991207 80.87657599 196.74206664 89.58564609 204.10107422 99.59423828 C205.39750666 101.34285682 206.72788718 103.06078803 208.06640625 104.77734375 C215.93067241 114.9920598 222.3161092 125.94975258 228.375 137.3125 C229.03846436 138.55314209 229.03846436 138.55314209 229.71533203 139.81884766 C241.23204842 161.72199262 248.9030584 186.01309889 253.375 210.3125 C253.53581055 211.11316895 253.69662109 211.91383789 253.86230469 212.73876953 C259.3544441 240.81662453 259.10896692 274.30227935 253.375 302.3125 C253.18164062 303.30910645 252.98828125 304.30571289 252.7890625 305.33251953 C244.67028127 346.42132055 227.30084885 383.51549494 201.375 416.3125 C200.56289063 417.35019531 199.75078125 418.38789063 198.9140625 419.45703125 C186.24907313 435.01858759 171.69874403 449.61464417 155.375 461.3125 C154.02974408 462.30180622 152.68470229 463.29140366 151.33984375 464.28125 C120.03306909 487.08129792 84.47487825 502.30078684 46.375 509.3125 C45.57433105 509.47331055 44.77366211 509.63412109 43.94873047 509.79980469 C15.88172956 515.289821 -17.62684244 515.06193715 -45.625 509.3125 C-46.63755859 509.11382324 -47.65011719 508.91514648 -48.69335938 508.71044922 C-89.78600049 500.49315205 -126.72136417 483.05232803 -159.625 457.3125 C-160.16415039 456.89339355 -160.70330078 456.47428711 -161.25878906 456.04248047 C-177.49886305 443.27946125 -192.56962343 428.08823511 -204.625 411.3125 C-205.4887527 410.14261544 -206.35335469 408.9733575 -207.21875 407.8046875 C-222.36207742 387.1786757 -234.4442165 364.56952873 -242.625 340.3125 C-243.03806396 339.08998535 -243.03806396 339.08998535 -243.45947266 337.84277344 C-246.69755506 328.07192323 -249.22985473 318.19031263 -251.375 308.125 C-251.57375732 307.20033936 -251.77251465 306.27567871 -251.97729492 305.32299805 C-255.26999027 289.11638823 -256.00030278 273.1821298 -255.9375 256.6875 C-255.93534485 255.66926147 -255.9331897 254.65102295 -255.93096924 253.60192871 C-255.88127396 238.98002576 -255.57561242 224.68116068 -252.625 210.3125 C-252.42632324 209.29994141 -252.22764648 208.28738281 -252.02294922 207.24414062 C-244.65299943 170.38887112 -229.85817801 135.66776148 -207.625 105.3125 C-207.20895508 104.73951172 -206.79291016 104.16652344 -206.36425781 103.57617188 C-200.49310994 95.54000912 -194.07484879 88.12334895 -187.18798828 80.94287109 C-186.12167192 79.83058421 -185.06034402 78.71349879 -184.00341797 77.59228516 C-182.40968175 75.90415474 -180.80135226 74.23138708 -179.1875 72.5625 C-178.46167725 71.79184204 -178.46167725 71.79184204 -177.72119141 71.00561523 C-174.81479301 68.05224168 -172.80909283 66.49357357 -168.625 66.3125 C-167.67367187 66.54839844 -166.72234375 66.78429687 -165.7421875 67.02734375 C-161.35325264 67.42883779 -159.04136305 65.47011318 -155.75 62.875 C-154.86054688 62.25334961 -154.86054688 62.25334961 -153.953125 61.61914062 C-151.96480729 60.17874542 -151.96480729 60.17874542 -149.625 57.3125 C-149.3638352 55.33720521 -149.3638352 55.33720521 -149.5546875 53.27734375 C-149.625 49.3125 -149.625 49.3125 -147.5234375 46.59765625 C-119.35033213 24.3857066 -84.07142368 11.14042668 -49.1875 4 C-48.46860596 3.85264404 -47.74971191 3.70528809 -47.0090332 3.5534668 C-31.36274321 0.57960898 -15.88931915 -0.06049808 0 0 Z M-34.625 58.3125 C-36.38432861 58.58416992 -36.38432861 58.58416992 -38.17919922 58.86132812 C-56.2946683 61.77308878 -74.81262121 68.35127696 -90.81542969 77.30761719 C-92.68589859 78.34631795 -94.57745927 79.33506346 -96.4765625 80.3203125 C-113.12117201 89.11240816 -127.73927738 100.68154292 -141.12841797 113.84667969 C-142.38208931 115.07458225 -143.65910224 116.27859215 -144.94140625 117.4765625 C-174.86396204 145.8878781 -197.77700535 193.16134544 -199.73187256 234.57667542 C-199.78952767 237.18171061 -199.81596227 239.78497684 -199.828125 242.390625 C-199.83382507 243.35667664 -199.83952515 244.32272827 -199.84539795 245.3180542 C-199.85481595 247.36209023 -199.86136916 249.40614123 -199.86523438 251.45019531 C-199.87483952 254.51135496 -199.90585154 257.57181296 -199.9375 260.6328125 C-200.03291877 278.4216106 -197.95461507 295.30447607 -192.625 312.3125 C-192.22885498 313.5806958 -192.22885498 313.5806958 -191.82470703 314.87451172 C-181.56037855 347.15409423 -164.91608001 373.9342833 -141.625 398.3125 C-140.95082031 399.03953125 -140.27664062 399.7665625 -139.58203125 400.515625 C-133.54521855 406.84848609 -126.59049447 412.0558388 -119.625 417.3125 C-119.06006836 417.74353027 -118.49513672 418.17456055 -117.91308594 418.61865234 C-90.93100774 439.0957 -59.90819161 450.38616333 -26.625 455.3125 C-25.55048584 455.489021 -24.47597168 455.66554199 -23.36889648 455.84741211 C-19.11263079 456.37614939 -14.95966199 456.49280921 -10.67578125 456.515625 C-9.82308151 456.52132507 -8.97038177 456.52702515 -8.09184265 456.53289795 C-6.28739646 456.54230965 -4.48293338 456.54886662 -2.6784668 456.55273438 C0.00960808 456.56231155 2.69687394 456.59331659 5.38476562 456.625 C22.88971338 456.73165658 39.61731142 454.41342822 56.375 449.3125 C57.03048828 449.12381348 57.68597656 448.93512695 58.36132812 448.74072266 C90.16002474 439.5401993 117.60564011 421.96130436 141.375 399.3125 C142.15359375 398.58675781 142.9321875 397.86101562 143.734375 397.11328125 C149.82286311 391.27308255 154.96186332 384.80812257 160.02832031 378.0859375 C161.26520417 376.45708973 162.53352359 374.85223876 163.8046875 373.25 C183.26272616 347.73126078 195.05342993 315.90353763 199.375 284.3125 C199.54862061 283.24974854 199.72224121 282.18699707 199.90112305 281.09204102 C200.43644301 276.82244376 200.55523583 272.66094027 200.578125 268.36328125 C200.58382507 267.51058151 200.58952515 266.65788177 200.59539795 265.77934265 C200.60480965 263.97489646 200.61136662 262.17043338 200.61523438 260.3659668 C200.62481155 257.67789192 200.65581659 254.99062606 200.6875 252.30273438 C200.87681099 221.17564582 193.20441617 190.49780869 178.34863281 163.10791016 C177.40998826 161.37701948 176.49741886 159.63206624 175.5859375 157.88671875 C166.56747377 141.2505314 154.64766364 126.71316411 141.375 113.3125 C140.78299805 112.70946045 140.19099609 112.1064209 139.58105469 111.48510742 C134.49046495 106.33483018 129.10545948 101.73981306 123.375 97.3125 C122.80620117 96.86777344 122.23740234 96.42304687 121.65136719 95.96484375 C95.39588288 75.68357669 63.44806639 62.22636075 30.61547852 57.63452148 C28.96279997 57.39698384 27.31769205 57.10528986 25.67919922 56.78417969 C21.47671862 56.18426891 17.36855332 56.15014338 13.12890625 56.14453125 C12.24073715 56.14120285 11.35256805 56.13787445 10.43748474 56.13444519 C8.55899571 56.12939557 6.68049776 56.12703626 4.80200195 56.12719727 C1.9778693 56.12503097 -0.84585926 56.10691038 -3.66992188 56.08789062 C-14.18215732 56.05529428 -24.25090816 56.56955707 -34.625 58.3125 Z " fill="#FCDC4F" transform="translate(255.625,-0.3125)"/>
<path d="M0 0 C2.43492068 0.01836659 4.86946018 0.02050798 7.30444336 0.02026367 C19.52825642 0.04591978 31.1431984 0.81239841 43.11499023 3.45581055 C44.11216064 3.67325928 45.10933105 3.89070801 46.13671875 4.11474609 C53.6605035 5.81922466 60.69300351 8.02722728 67.73999023 11.20581055 C67.73999023 11.86581055 67.73999023 12.52581055 67.73999023 13.20581055 C68.4219043 13.28959961 69.10381836 13.37338867 69.80639648 13.4597168 C73.50396469 14.40011031 76.46383011 16.15882105 79.67749023 18.14331055 C80.65830566 18.74284546 80.65830566 18.74284546 81.65893555 19.35449219 C91.93897959 25.7220375 101.46446129 32.61199344 110.28295898 40.90112305 C112.44692636 42.93091757 114.65953554 44.85706329 116.92749023 46.76831055 C121.28354502 50.53814678 125.00820308 54.82890061 128.73999023 59.20581055 C127.2813027 62.56580073 125.43130075 64.75784161 122.84106445 67.33178711 C121.64004593 68.53257904 121.64004593 68.53257904 120.4147644 69.75762939 C119.1178215 71.03908844 119.1178215 71.03908844 117.79467773 72.34643555 C116.90966583 73.22861755 116.02465393 74.11079956 115.11282349 75.01971436 C112.76548892 77.35775598 110.41392238 79.69136929 108.06018066 82.02294922 C105.65685096 84.40577581 103.25921256 86.79431402 100.86108398 89.18237305 C96.15927557 93.86212917 91.45180359 98.53612922 86.73999023 103.20581055 C83.61791554 101.6447732 83.24485398 98.51826275 82.11499023 95.39331055 C73.44753819 72.73268772 56.17758914 58.17178462 34.73999023 48.20581055 C33.53149414 47.8190918 33.53149414 47.8190918 32.29858398 47.42456055 C30.73999023 46.20581055 30.73999023 46.20581055 30.27124023 43.0456543 C30.25577148 41.11399414 30.25577148 41.11399414 30.23999023 39.14331055 C29.93355278 30.10286809 27.67609709 23.35642864 21.40405273 16.71362305 C15.03255567 10.94038862 8.02623064 10.30047172 -0.33032227 10.6862793 C-7.27567469 11.60450183 -11.71521301 14.72798213 -16.63500977 19.51831055 C-17.17125977 20.40518555 -17.70750977 21.29206055 -18.26000977 22.20581055 C-18.61708008 22.79491211 -18.97415039 23.38401367 -19.34204102 23.9909668 C-22.08451442 29.17550132 -22.24864268 32.9188939 -22.01000977 38.76831055 C-22.24357481 45.25622836 -22.24357481 45.25622836 -24.71508789 47.56518555 C-28.65920129 50.07469567 -32.97549275 51.74055671 -37.32348633 53.41772461 C-52.83079487 59.72856576 -66.43244266 76.02138145 -73.06567383 91.02856445 C-82.2660239 113.03010999 -83.54547942 137.78090152 -74.91894531 160.30078125 C-65.13754278 183.92503851 -45.70113227 194.64528231 -23.26000977 205.20581055 C-23.26000977 223.02581055 -23.26000977 240.84581055 -23.26000977 259.20581055 C-25.83228201 257.91967442 -25.90103017 257.07090833 -26.82250977 254.39331055 C-28.03621554 250.62663745 -28.45656528 247.21448292 -28.63500977 243.26831055 C-29.15064198 235.48424736 -31.81102171 229.1342731 -37.57250977 223.76831055 C-43.98685536 218.90937494 -50.2051964 217.5932006 -58.21313477 217.77612305 C-63.93565226 218.58314474 -69.16829314 221.11409392 -73.26000977 225.20581055 C-75.29674369 225.38178897 -77.34118394 225.47326102 -79.38500977 225.51831055 C-85.51783884 225.92490695 -89.80395435 226.83734344 -94.26000977 231.20581055 C-98.47135475 236.28102117 -98.91280447 241.93745512 -98.72485352 248.3503418 C-97.69006071 256.93303505 -95.56482717 266.03832184 -92.03344727 273.95581055 C-91.04502434 276.8312227 -91.42133373 278.30009511 -92.26000977 281.20581055 C-93.65084839 283.09785461 -93.65084839 283.09785461 -95.44702148 284.89453125 C-96.11796844 285.57485916 -96.78891541 286.25518707 -97.48019409 286.95613098 C-98.57389816 288.03298409 -98.57389816 288.03298409 -99.68969727 289.1315918 C-100.8089006 290.25297798 -100.8089006 290.25297798 -101.95071411 291.39701843 C-103.52799719 292.97264321 -105.11023185 294.54332456 -106.69702148 296.109375 C-109.13117289 298.5145194 -111.54606908 300.9378274 -113.95922852 303.36401367 C-115.49327348 304.89182301 -117.02839368 306.41855365 -118.56469727 307.9440918 C-119.28978485 308.67211502 -120.01487244 309.40013824 -120.76193237 310.15022278 C-121.43918365 310.81478989 -122.11643494 311.47935699 -122.81420898 312.1640625 C-123.40853729 312.75298782 -124.0028656 313.34191315 -124.61520386 313.94868469 C-126.26000977 315.20581055 -126.26000977 315.20581055 -129.26000977 315.20581055 C-131.92475351 312.88251029 -134.03073873 309.94011998 -136.26000977 307.20581055 C-137.17230257 306.12598822 -138.08509585 305.0465886 -138.99829102 303.9675293 C-173.0961827 263.13661071 -184.32186276 214.13629222 -181.05786133 161.9753418 C-180.53932404 156.61386196 -179.57214694 151.42651549 -178.26000977 146.20581055 C-178.05069824 145.36211914 -177.84138672 144.51842773 -177.62573242 143.64916992 C-169.81157359 112.9676744 -155.82933702 86.18334994 -135.26000977 62.20581055 C-134.41954102 61.22225586 -133.57907227 60.23870117 -132.71313477 59.2253418 C-128.21802302 54.10246445 -123.52518349 49.52462952 -118.26000977 45.20581055 C-117.75791992 44.78074219 -117.25583008 44.35567383 -116.73852539 43.91772461 C-94.36165103 24.98444589 -68.34890939 11.62459276 -39.94750977 4.39331055 C-39.18470703 4.19842041 -38.4219043 4.00353027 -37.63598633 3.80273438 C-25.11074184 0.78833262 -12.82592559 -0.09986816 0 0 Z " fill="#FEBC00" transform="translate(252.260009765625,70.794189453125)"/>
<path d="M0 0 C1.01823853 0.00215515 2.03647705 0.0043103 3.08557129 0.00653076 C17.7097884 0.05623391 32.00304638 0.37042012 46.375 3.3125 C47.37160645 3.50585938 48.36821289 3.69921875 49.39501953 3.8984375 C97.79648057 13.46213524 141.99059771 35.87987765 177.375 70.3125 C178.37877686 71.27760498 178.37877686 71.27760498 179.40283203 72.26220703 C188.33991207 80.87657599 196.74206664 89.58564609 204.10107422 99.59423828 C205.39750666 101.34285682 206.72788718 103.06078803 208.06640625 104.77734375 C215.93067241 114.9920598 222.3161092 125.94975258 228.375 137.3125 C229.03846436 138.55314209 229.03846436 138.55314209 229.71533203 139.81884766 C241.23204842 161.72199262 248.9030584 186.01309889 253.375 210.3125 C253.53581055 211.11316895 253.69662109 211.91383789 253.86230469 212.73876953 C259.3544441 240.81662453 259.10896692 274.30227935 253.375 302.3125 C253.18164062 303.30910645 252.98828125 304.30571289 252.7890625 305.33251953 C244.67028127 346.42132055 227.30084885 383.51549494 201.375 416.3125 C200.56289063 417.35019531 199.75078125 418.38789063 198.9140625 419.45703125 C186.24907313 435.01858759 171.69874403 449.61464417 155.375 461.3125 C154.02974408 462.30180622 152.68470229 463.29140366 151.33984375 464.28125 C120.03306909 487.08129792 84.47487825 502.30078684 46.375 509.3125 C45.57433105 509.47331055 44.77366211 509.63412109 43.94873047 509.79980469 C15.88172956 515.289821 -17.62684244 515.06193715 -45.625 509.3125 C-46.63755859 509.11382324 -47.65011719 508.91514648 -48.69335938 508.71044922 C-89.78600049 500.49315205 -126.72136417 483.05232803 -159.625 457.3125 C-160.16415039 456.89339355 -160.70330078 456.47428711 -161.25878906 456.04248047 C-177.49886305 443.27946125 -192.56962343 428.08823511 -204.625 411.3125 C-205.4887527 410.14261544 -206.35335469 408.9733575 -207.21875 407.8046875 C-222.36207742 387.1786757 -234.4442165 364.56952873 -242.625 340.3125 C-243.03806396 339.08998535 -243.03806396 339.08998535 -243.45947266 337.84277344 C-246.69755506 328.07192323 -249.22985473 318.19031263 -251.375 308.125 C-251.57375732 307.20033936 -251.77251465 306.27567871 -251.97729492 305.32299805 C-255.26999027 289.11638823 -256.00030278 273.1821298 -255.9375 256.6875 C-255.93534485 255.66926147 -255.9331897 254.65102295 -255.93096924 253.60192871 C-255.88127396 238.98002576 -255.57561242 224.68116068 -252.625 210.3125 C-252.42632324 209.29994141 -252.22764648 208.28738281 -252.02294922 207.24414062 C-244.65299943 170.38887112 -229.85817801 135.66776148 -207.625 105.3125 C-207.20895508 104.73951172 -206.79291016 104.16652344 -206.36425781 103.57617188 C-200.49310994 95.54000912 -194.07484879 88.12334895 -187.18798828 80.94287109 C-186.12167192 79.83058421 -185.06034402 78.71349879 -184.00341797 77.59228516 C-182.40968175 75.90415474 -180.80135226 74.23138708 -179.1875 72.5625 C-178.46167725 71.79184204 -178.46167725 71.79184204 -177.72119141 71.00561523 C-174.83612951 68.07392304 -172.78276168 66.54348676 -168.625 66.3125 C-165.71943198 67.05578484 -164.15309243 67.66438656 -162.25 70 C-161.28937349 73.55431808 -161.68403589 75.72735381 -162.625 79.3125 C-164.83175895 82.21106927 -167.44894005 84.60098029 -170.125 87.0625 C-171.60112435 88.47946886 -173.0737999 89.90003943 -174.54296875 91.32421875 C-175.25243652 92.00919434 -175.9619043 92.69416992 -176.69287109 93.39990234 C-180.73216208 97.39836147 -184.20036545 101.78821215 -187.625 106.3125 C-188.04023926 106.85132812 -188.45547852 107.39015625 -188.88330078 107.9453125 C-200.22611006 122.69964845 -209.76448244 138.44811687 -217.625 155.3125 C-217.92889648 155.95896484 -218.23279297 156.60542969 -218.54589844 157.27148438 C-237.42387051 197.76745434 -244.25117996 244.0970646 -237.625 288.3125 C-237.41591788 289.84885662 -237.20760813 291.38531851 -237 292.921875 C-233.21771655 319.84984757 -224.62311192 345.40946208 -211.625 369.3125 C-211.28678223 369.95268066 -210.94856445 370.59286133 -210.60009766 371.25244141 C-199.76527086 391.75743935 -185.53373027 409.53198043 -169.625 426.3125 C-168.55765625 427.44365234 -168.55765625 427.44365234 -167.46875 428.59765625 C-162.24134807 433.98573652 -156.5063465 438.65870006 -150.625 443.3125 C-149.17673828 444.48619141 -149.17673828 444.48619141 -147.69921875 445.68359375 C-98.42595705 484.81420184 -34.90282102 501.86720658 27.4375 495.0625 C31.75900483 494.53533639 36.06767553 493.9445683 40.375 493.3125 C41.24318359 493.1892334 42.11136719 493.0659668 43.00585938 492.93896484 C98.78005625 484.62625035 152.69277206 451.30971821 187.375 407.3125 C188.179375 406.31347656 188.98375 405.31445312 189.8125 404.28515625 C206.16802044 383.75970038 218.54065182 359.96626119 227.375 335.3125 C227.79604004 334.14605957 227.79604004 334.14605957 228.22558594 332.95605469 C232.38563556 321.22069679 235.0221965 309.41121472 236.93701172 297.11865234 C237.22460064 295.27609547 237.52277524 293.43515353 237.83251953 291.59619141 C243.48913513 257.83345773 241.26735473 222.11454067 231.375 189.3125 C231.13442871 188.49233398 230.89385742 187.67216797 230.64599609 186.82714844 C219.16859828 148.22471078 197.9023522 115.34833533 170.375 86.3125 C169.6634375 85.55839844 168.951875 84.80429688 168.21875 84.02734375 C162.99134807 78.63926348 157.2563465 73.96629994 151.375 69.3125 C150.40949219 68.53003906 149.44398438 67.74757813 148.44921875 66.94140625 C139.24212508 59.6295466 129.45506529 53.35181184 119.375 47.3125 C118.74400391 46.93351562 118.11300781 46.55453125 117.46289062 46.1640625 C101.76122243 36.89293322 83.9468686 30.0705663 66.375 25.3125 C65.31023437 24.99023438 64.24546875 24.66796875 63.1484375 24.3359375 C55.09520088 21.99674904 47.02188341 20.46479482 38.75 19.125 C37.72551758 18.95806641 36.70103516 18.79113281 35.64550781 18.61914062 C6.17605188 14.04775359 -24.66985103 15.06597074 -53.625 22.3125 C-55.26934965 22.6804999 -56.91389853 23.04761014 -58.55859375 23.4140625 C-84.34325439 29.39430878 -109.65604348 40.27496304 -131.50292969 55.29052734 C-132.45844727 55.94102051 -133.41396484 56.59151367 -134.3984375 57.26171875 C-135.25614746 57.86717529 -136.11385742 58.47263184 -136.99755859 59.09643555 C-140.34136102 60.64405494 -142.12378931 60.30033942 -145.625 59.3125 C-148.64297955 57.16814611 -149.48855315 56.02505579 -150.1875 52.375 C-149.2678997 47.36828725 -145.59237598 45.04887987 -141.6640625 42.05859375 C-113.98588793 22.97630464 -82.02029962 10.72057996 -49.1875 4 C-48.46860596 3.85264404 -47.74971191 3.70528809 -47.0090332 3.5534668 C-31.36274321 0.57960898 -15.88931915 -0.06049808 0 0 Z " fill="#010100" transform="translate(255.625,-0.3125)"/>
<path d="M0 0 C0.73476563 0.0309375 1.46953125 0.061875 2.2265625 0.09375 C5.58278541 0.72838124 7.66119679 1.71099624 9.96704102 4.25976562 C11.631915 6.90878309 11.76865086 8.45582609 11.81640625 11.5625 C11.85604492 13.00496094 11.85604492 13.00496094 11.89648438 14.4765625 C11.91001953 15.47429687 11.92355469 16.47203125 11.9375 17.5 C11.97202323 19.479332 12.01467748 21.45854292 12.06640625 23.4375 C12.08489624 24.75041016 12.08489624 24.75041016 12.10375977 26.08984375 C12.40059206 28.72740306 12.88444125 30.30579926 14.375 32.5 C16.0798338 33.56021501 16.0798338 33.56021501 18.12109375 34.17578125 C18.87076416 34.44253662 19.62043457 34.70929199 20.39282227 34.98413086 C21.59056274 35.39417358 21.59056274 35.39417358 22.8125 35.8125 C42.53290997 43.03870106 56.06312148 55.56787984 65.125 74.578125 C69.45944946 84.70990062 72.78416181 97.13867225 69.25 107.9375 C66.91575462 111.12763535 65.09105948 112.18844959 61.375 113.5 C57.36636443 114.08459269 55.72214406 113.68692372 52.125 111.75 C48.3446715 108.65700396 47.55748311 106.81214042 46.8828125 101.9609375 C46.75292228 100.59917445 46.62542436 99.23718163 46.5 97.875 C44.84683099 83.05665496 38.48641141 73.74122436 27.29296875 64.03125 C24.01465726 61.41394225 21.51465793 61.30009361 17.34765625 61.07421875 C15.25704872 61.34494009 15.25704872 61.34494009 13.7779541 63.0327301 C11.84119133 66.43876918 11.94006327 69.58755213 11.95507812 73.40209961 C11.94660858 74.19444504 11.93813904 74.98679047 11.92941284 75.80314636 C11.90603316 78.41970922 11.90502088 81.03568439 11.90625 83.65234375 C11.89914908 85.47311132 11.89145018 87.29387665 11.88317871 89.11463928 C11.86973175 92.93024924 11.86816612 96.74565228 11.87402344 100.5612793 C11.87992028 105.4486395 11.84933002 110.33500656 11.80890656 115.22217464 C11.78304517 118.98231852 11.7801507 122.74222276 11.78379822 126.50244331 C11.78210555 128.3041693 11.77244889 130.10590619 11.75465393 131.90754509 C11.73249371 134.42853969 11.74214942 136.94751761 11.75976562 139.46850586 C11.74650238 140.21100586 11.73323914 140.95350586 11.71957397 141.71850586 C11.78361279 145.66667421 12.23763155 147.33230762 14.77314758 150.42753601 C17.17856316 152.34353137 19.01244481 153.47620828 21.88671875 154.4921875 C22.72227295 154.80091797 23.55782715 155.10964844 24.41870117 155.42773438 C25.72738159 155.89663086 25.72738159 155.89663086 27.0625 156.375 C34.63132931 159.25008174 41.1337197 162.23683079 47.375 167.5 C48.1484375 168.10328125 48.921875 168.7065625 49.71875 169.328125 C60.46484932 178.13992644 67.78944323 191.76541212 70.09375 205.48046875 C71.16759972 217.0094387 71.25895575 228.47457723 67.375 239.5 C67.0346875 240.469375 66.694375 241.43875 66.34375 242.4375 C64.14277801 248.14813003 61.38722195 253.10814686 58 258.1875 C54.58919721 263.4024024 54.58919721 263.4024024 54.8125 269.375 C54.98007812 270.07367188 55.14765625 270.77234375 55.3203125 271.4921875 C55.375 273.5 55.375 273.5 54.0546875 275.5703125 C51.15658957 278.56541789 48.67755257 281.08612721 44.375 281.5 C43.385 280.84 42.395 280.18 41.375 279.5 C36.07209859 278.59462659 32.64161624 280.70029264 28.11328125 283.1328125 C24.40493094 284.98434261 20.5657554 286.24274046 16.625 287.5078125 C14.05250078 288.40145443 14.05250078 288.40145443 12.375 291.5 C12.05701549 293.83643607 12.05701549 293.83643607 12.06640625 296.4296875 C12.04126953 297.39003906 12.01613281 298.35039062 11.99023438 299.33984375 C11.95521494 301.35540678 11.92393527 303.37103843 11.89648438 305.38671875 C11.63736119 314.82891474 11.63736119 314.82891474 8.375 318.5 C5.65882131 320.31263354 3.24218453 320.88617067 0 321.0625 C-1.09441406 321.15724609 -1.09441406 321.15724609 -2.2109375 321.25390625 C-6.33657484 319.96547905 -8.59450026 317.24764067 -10.625 313.5 C-11.36173589 309.75557712 -11.33070392 306.11819401 -11.25 302.3125 C-10.89348381 295.30912303 -10.89348381 295.30912303 -13.2421875 288.96875 C-16.12990767 287.18877822 -18.88284512 286.19154571 -22.125 285.1875 C-39.37541947 279.30016804 -52.74658703 268.4301686 -61.34765625 252.26171875 C-66.91722206 240.61626297 -70.84526182 228.56789481 -69.625 215.5 C-68.33006863 212.29674873 -67.06724846 210.89021923 -64.5 208.625 C-60.35312429 207.0023095 -56.87127208 207.21534885 -52.625 208.5 C-49.91947612 210.69823815 -48.17721667 212.39556667 -46.625 215.5 C-46.48854256 217.1836749 -46.35434401 218.86757759 -46.23413086 220.55249023 C-45.11918638 234.01588095 -39.75227379 245.54061726 -29.80078125 254.80078125 C-24.47604961 258.95923415 -21.31481887 260.25530213 -14.625 259.5 C-11.89404612 257.07735539 -11.62961501 255.54535771 -11.25750732 251.88816833 C-11.24579462 250.41694265 -11.25064697 248.94552856 -11.26855469 247.47436523 C-11.26651031 246.66905365 -11.26446594 245.86374207 -11.26235962 245.0340271 C-11.25935444 242.37531742 -11.27781998 239.7172296 -11.296875 237.05859375 C-11.29993309 235.21061863 -11.30180883 233.3626412 -11.30255127 231.5146637 C-11.30715261 227.64355637 -11.32157274 223.77265728 -11.34375 219.90161133 C-11.37205192 214.9359486 -11.38296377 209.97044973 -11.3874321 205.00471401 C-11.39158586 201.18978736 -11.40140267 197.37489392 -11.41330719 193.55998421 C-11.41900973 191.72872242 -11.42376849 189.89745744 -11.42757416 188.06619072 C-11.43443789 185.50948333 -11.44807047 182.95290608 -11.46386719 180.39624023 C-11.46498505 179.63719894 -11.46610291 178.87815765 -11.46725464 178.09611511 C-11.4929302 174.96333421 -11.62670687 172.49487938 -12.625 169.5 C-14.5848036 168.64694522 -14.5848036 168.64694522 -17 168.125 C-22.86638893 166.51822871 -28.17685226 164.18401396 -33.625 161.5 C-34.3984375 161.11972656 -35.171875 160.73945313 -35.96875 160.34765625 C-52.06611128 151.93055009 -61.98710063 139.38237501 -67.375 122.1875 C-72.50677933 104.6141394 -70.17905397 84.60535998 -61.625 68.5 C-50.96801036 50.7798886 -36.06965691 39.61565925 -16.390625 33.703125 C-13.57872968 32.77958906 -13.57872968 32.77958906 -12.46484375 30.73681641 C-11.50265559 28.17415131 -11.40043214 26.24075642 -11.421875 23.5078125 C-11.41027344 22.55519531 -11.39867187 21.60257813 -11.38671875 20.62109375 C-11.37893681 18.6315103 -11.38662782 16.6418033 -11.41015625 14.65234375 C-11.32590708 9.85014087 -11.24121794 6.45993586 -7.8671875 2.8359375 C-3.5798737 -0.25299461 -3.5798737 -0.25299461 0 0 Z " fill="#FCE792" transform="translate(255.625,95.5)"/>
<path d="M0 0 C1.14807129 0.15275391 1.14807129 0.15275391 2.31933594 0.30859375 C30.19747305 4.04567129 56.15372649 12.7986157 81 26 C83.66045786 27.34615628 86.32961275 28.67357132 89 30 C79 40 69 50 59 60 C54.84944153 58.64332868 50.9165132 57.11217759 46.9375 55.3125 C31.20134371 48.46752886 15.31329992 44.00777814 -1.63256836 41.36962891 C-3.33221068 41.10426246 -5.02562888 40.79780881 -6.71337891 40.46508789 C-10.90912044 39.87135088 -15.01383742 39.8376336 -19.24609375 39.83203125 C-20.13426285 39.82870285 -21.02243195 39.82537445 -21.93751526 39.82194519 C-23.81600429 39.81689557 -25.69450224 39.81453626 -27.57299805 39.81469727 C-30.3971307 39.81253097 -33.22085926 39.79441038 -36.04492188 39.77539062 C-46.55715732 39.74279428 -56.62590816 40.25705707 -67 42 C-68.75932861 42.27166992 -68.75932861 42.27166992 -70.55419922 42.54882812 C-88.6696683 45.46058878 -107.18762121 52.03877696 -123.19042969 60.99511719 C-125.06089859 62.03381795 -126.95245927 63.02256346 -128.8515625 64.0078125 C-146.1458029 73.14305932 -161.14022437 85.28929813 -175 99 C-175.58998779 99.57314941 -176.17997559 100.14629883 -176.7878418 100.73681641 C-180.58512148 104.46052733 -184.05565685 108.29675005 -187.3125 112.5 C-187.77906006 113.10038086 -188.24562012 113.70076172 -188.72631836 114.31933594 C-212.70123202 145.56244248 -231.0163238 185.05928767 -231.203125 225.078125 C-231.21167511 226.52720245 -231.21167511 226.52720245 -231.22039795 228.0055542 C-231.22981595 230.04959023 -231.23636916 232.09364123 -231.24023438 234.13769531 C-231.24983952 237.19885496 -231.28085154 240.25931296 -231.3125 243.3203125 C-231.43250323 265.69235908 -227.2720634 285.70394874 -220.0625 306.8125 C-219.73870361 307.76737305 -219.41490723 308.72224609 -219.08129883 309.70605469 C-217.09160427 315.3971046 -214.7721854 320.58836961 -211.75561523 325.81518555 C-211 328 -211 328 -211.50415039 329.90893555 C-213.64713639 332.904639 -216.19238442 335.43668311 -218.8125 338.0078125 C-219.66678589 338.85785355 -219.66678589 338.85785355 -220.53833008 339.72506714 C-222.35423367 341.52980637 -224.17696947 343.32746304 -226 345.125 C-227.22702156 346.34198524 -228.45358928 347.55942825 -229.6796875 348.77734375 C-231.92298411 351.00431276 -234.16873967 353.22872995 -236.41796875 355.44970703 C-237.94941513 356.9623289 -239.47793677 358.47793677 -241 360 C-250.83815485 342.72381987 -258.79741964 324.21348985 -264 305 C-264.48339844 303.40285156 -264.48339844 303.40285156 -264.9765625 301.7734375 C-267.32192436 293.69894744 -268.84958852 285.60706111 -270.1875 277.3125 C-270.35443359 276.27963867 -270.52136719 275.24677734 -270.69335938 274.18261719 C-274.20863632 251.44904633 -274.46165436 227.76025836 -271 205 C-270.87641113 204.16017578 -270.75282227 203.32035156 -270.62548828 202.45507812 C-262.78085253 150.68999084 -237.81568305 101.37795569 -199.3125 65.625 C-196.61147178 62.96880213 -196.0178339 62.06294317 -194.9375 58.25 C-194.98951889 55.54501751 -195.29177628 53.56521977 -196 51 C-193.76175998 49.12981281 -191.51136473 47.27934568 -189.25 45.4375 C-188.29867187 44.63795898 -188.29867187 44.63795898 -187.328125 43.82226562 C-186.709375 43.32275391 -186.090625 42.82324219 -185.453125 42.30859375 C-184.88754883 41.84251709 -184.32197266 41.37644043 -183.73925781 40.89624023 C-182 40 -182 40 -179.95507812 40.30175781 C-179.30990234 40.53217773 -178.66472656 40.76259766 -178 41 C-175.07076433 41.92480155 -173.01710593 42.42890965 -170.12304688 41.20849609 C-167.93988098 39.94486442 -165.84694414 38.58957576 -163.75 37.1875 C-162.13051463 36.15762269 -160.50937712 35.13033945 -158.88671875 34.10546875 C-158.0673584 33.58259277 -157.24799805 33.0597168 -156.40380859 32.52099609 C-135.43670301 19.25418035 -112.5559835 10.02527278 -88.37548828 4.54052734 C-86.35728786 4.08129859 -84.34745476 3.58554095 -82.33984375 3.08203125 C-55.5604683 -3.32809872 -27.18582622 -3.86494414 0 0 Z " fill="#FDDC4F" transform="translate(288,17)"/>
<path d="M0 0 C2.15575101 0.77115439 4.32287427 1.50377891 6.49169922 2.23730469 C24.26012767 8.37666018 40.7800499 16.65986826 55.99560547 27.71386719 C56.55296387 28.11573242 57.11032227 28.51759766 57.68457031 28.93164062 C65.83868127 34.86146875 73.3178134 41.41299205 80.59863281 48.37988281 C81.78991793 49.51745392 82.99490311 50.64064943 84.20263672 51.76074219 C90.5343188 57.79582816 95.74019303 64.75002743 100.99560547 71.71386719 C101.42663574 72.27879883 101.85766602 72.84373047 102.30175781 73.42578125 C122.77880547 100.40785945 134.0692688 131.43067557 138.99560547 164.71386719 C139.17212646 165.78838135 139.34864746 166.86289551 139.53051758 167.9699707 C140.05925486 172.22623639 140.17591468 176.3792052 140.19873047 180.66308594 C140.20443054 181.51578568 140.21013062 182.36848541 140.21600342 183.24702454 C140.22541511 185.05147072 140.23197209 186.8559338 140.23583984 188.66040039 C140.24541702 191.34847527 140.27642206 194.03574113 140.30810547 196.72363281 C140.41371619 214.1067788 138.31791882 231.12034403 132.99560547 247.71386719 C132.57480713 249.03717041 132.57480713 249.03717041 132.14550781 250.38720703 C125.01141627 272.39040155 115.40432227 293.4910783 100.99560547 311.71386719 C100.33302734 312.58398438 99.67044922 313.45410156 98.98779297 314.35058594 C93.7117896 321.15385344 87.89658111 327.45577198 81.99560547 333.71386719 C81.26599609 334.49761719 80.53638672 335.28136719 79.78466797 336.08886719 C59.93220429 356.75314165 32.84107269 372.29702735 5.99560547 381.71386719 C4.77615234 382.15085937 3.55669922 382.58785156 2.30029297 383.03808594 C-8.86035376 386.86682755 -20.3691793 388.88986663 -32.00439453 390.71386719 C-33.07657227 390.89111328 -34.14875 391.06835938 -35.25341797 391.25097656 C-39.51188595 391.77649435 -43.66788429 391.89416655 -47.95361328 391.91699219 C-48.80631302 391.92269226 -49.65901276 391.92839233 -50.53755188 391.93426514 C-52.34199807 391.94367683 -54.14646115 391.95023381 -55.95092773 391.95410156 C-58.63900261 391.96367874 -61.32626847 391.99468378 -64.01416016 392.02636719 C-95.14124871 392.21567818 -125.81908584 384.54328336 -153.20898438 369.6875 C-154.93987505 368.74885545 -156.68482829 367.83628604 -158.43017578 366.92480469 C-175.06636313 357.90634096 -189.60373042 345.98653083 -203.00439453 332.71386719 C-203.60743408 332.12186523 -204.21047363 331.52986328 -204.83178711 330.91992188 C-209.98206435 325.82933214 -214.57708148 320.44432667 -219.00439453 314.71386719 C-219.67148438 313.86066895 -219.67148438 313.86066895 -220.35205078 312.99023438 C-240.63331784 286.73475007 -254.09053378 254.78693357 -258.68237305 221.9543457 C-258.91764547 220.31742753 -259.2082062 218.6881885 -259.53051758 217.06616211 C-260.16190411 212.5996147 -260.1866767 208.20414524 -260.20751953 203.69824219 C-260.2132196 202.72840393 -260.21891968 201.75856567 -260.22479248 200.75933838 C-260.23422018 198.70512981 -260.24076758 196.65090626 -260.24462891 194.59667969 C-260.25423307 191.51566504 -260.28523513 188.43534763 -260.31689453 185.35449219 C-260.40773285 168.75569388 -258.54900226 153.43082599 -253.69189453 137.52636719 C-253.38630615 136.50736328 -253.08071777 135.48835937 -252.76586914 134.43847656 C-240.42400393 94.04808187 -215.74572904 57.29731458 -181.74414062 32.00927734 C-180.05531883 30.75178528 -178.38349282 29.47397398 -176.71142578 28.19433594 C-154.2094847 11.26221516 -127.61101679 0.38676575 -100.19189453 -5.53613281 C-99.439646 -5.69952148 -98.68739746 -5.86291016 -97.91235352 -6.03125 C-66.88492218 -12.37538746 -29.79990338 -10.69896659 0 0 Z M-99.00439453 9.71386719 C-99.92397949 9.94493164 -100.84356445 10.17599609 -101.79101562 10.4140625 C-133.13238241 18.50774013 -161.07076671 32.52403338 -184.84423828 54.70996094 C-186.86335882 56.58303298 -188.94602516 58.3332356 -191.06689453 60.08886719 C-196.03124021 64.41394098 -199.93480006 69.56575829 -204.00439453 74.71386719 C-204.65150391 75.47183594 -205.29861328 76.22980469 -205.96533203 77.01074219 C-222.98080421 97.15150517 -234.35363733 122.641443 -240.81689453 148.02636719 C-241.01178467 148.78916992 -241.2066748 149.55197266 -241.4074707 150.33789062 C-244.42187246 162.86313511 -245.31007324 175.14795136 -245.21020508 187.97387695 C-245.19183848 190.40879763 -245.1896971 192.84333714 -245.18994141 195.27832031 C-245.10693912 234.35376005 -232.35033398 272.8703294 -208.00439453 303.71386719 C-207.23224609 304.69484375 -206.46009766 305.67582031 -205.66455078 306.68652344 C-203.48294195 309.39768518 -201.26058156 312.06458768 -199.00439453 314.71386719 C-198.32505859 315.51695312 -197.64572266 316.32003906 -196.94580078 317.14746094 C-192.62989261 322.13641521 -188.064087 326.49304171 -183.00439453 330.71386719 C-182.13169922 331.47441406 -181.25900391 332.23496094 -180.35986328 333.01855469 C-159.5508343 350.90261976 -135.66109665 363.30509238 -109.37939453 371.02636719 C-108.60635986 371.25670654 -107.8333252 371.4870459 -107.03686523 371.72436523 C-92.35902021 375.82033325 -77.69218264 377.27044367 -62.50439453 377.15136719 C-61.68622253 377.14865814 -60.86805054 377.1459491 -60.02508545 377.14315796 C-39.72173859 377.04191466 -20.16423822 374.72054142 -1.00439453 367.71386719 C0.83445312 367.10478516 0.83445312 367.10478516 2.71044922 366.48339844 C20.44587675 360.46115884 37.27269767 351.2566269 51.99560547 339.71386719 C52.87990234 339.03839844 53.76419922 338.36292969 54.67529297 337.66699219 C63.8910661 330.48959878 72.5938978 322.7670715 79.99560547 313.71386719 C80.89794922 312.64746094 81.80029297 311.58105469 82.70263672 310.51464844 C116.50119324 270.02593178 129.31028544 219.19689099 124.68212891 167.19140625 C123.90699362 160.90904376 122.61757107 154.82762104 120.99560547 148.71386719 C120.68212158 147.47660889 120.68212158 147.47660889 120.36230469 146.21435547 C111.00476378 109.92672307 90.29441251 74.51289817 60.99560547 50.71386719 C60.01333984 49.89402344 59.03107422 49.07417969 58.01904297 48.22949219 C15.99541095 13.71694143 -45.34074915 -3.94186592 -99.00439453 9.71386719 Z " fill="#040300" transform="translate(316.00439453125,64.2861328125)"/>
<path d="M0 0 C6.77774659 4.60886768 11.72011638 10.98361018 13.875 18.9375 C14.46988263 23.94151268 14.74220999 28.89811905 14.875 33.9375 C15.61363281 34.21722656 16.35226562 34.49695313 17.11328125 34.78515625 C37.53700552 42.85603077 55.66270834 58.35781226 64.68066406 78.76025391 C70.40883348 92.45849139 76.2128121 110.46564551 70.25 125 C65.60972427 133.50176393 59.99773117 137.89658961 50.875 140.9375 C42.44322051 141.83586311 35.84848536 140.92028452 28.875 135.9375 C21.75996405 129.64136441 19.00869301 123.27860437 18.375 113.9375 C18.3440625 112.98875 18.313125 112.04 18.28125 111.0625 C17.87584026 107.01715679 17.87584026 107.01715679 14.875 99.9375 C14.545 117.4275 14.215 134.9175 13.875 152.9375 C16.845 153.9275 19.815 154.9175 22.875 155.9375 C31.83476714 159.78854246 39.62692893 164.36509657 46.875 170.9375 C48.04675781 171.98744141 48.04675781 171.98744141 49.2421875 173.05859375 C63.02272233 186.07354331 71.44103089 204.71790611 72.19140625 223.65625 C72.59928518 245.17405155 68.68303808 268.16550323 53.4453125 284.6796875 C50.60291631 286.95643271 48.43151948 287.19615596 44.875 286.9375 C41.875 284.9375 41.875 284.9375 39.875 281.9375 C39.383877 275.79846244 42.6541602 271.98461189 45.9609375 267.03125 C55.77438788 251.16950979 58.58366463 232.77339983 54.79638672 214.55932617 C51.05352118 199.11386844 42.85628361 186.34411573 29.56640625 177.55859375 C21.63605571 172.78196752 13.45831107 169.24294598 4.6875 166.30859375 C1.22689357 164.62154812 -0.05546274 163.1872001 -2.125 159.9375 C-2.51217415 157.13190643 -2.67318021 154.72219397 -2.64257812 151.921875 C-2.6495874 151.12938354 -2.65659668 150.33689209 -2.66381836 149.52038574 C-2.68137792 146.90906404 -2.66978337 144.29883212 -2.65625 141.6875 C-2.65894551 139.86816195 -2.66282843 138.04882531 -2.66784668 136.22949219 C-2.67373895 132.41978211 -2.6651876 128.61044761 -2.64648438 124.80078125 C-2.62369488 119.92138777 -2.63681943 115.04287438 -2.66077423 110.16351318 C-2.6752396 106.40764759 -2.67062285 102.65199009 -2.66026306 98.89611816 C-2.65759781 97.0972076 -2.66085844 95.29827803 -2.67018127 93.49938965 C-2.68035922 90.98346022 -2.66482961 88.46894899 -2.64257812 85.953125 C-2.65067505 85.21219604 -2.65877197 84.47126709 -2.66711426 83.70788574 C-2.60877238 80.14090508 -2.19452804 78.05188682 -0.32702637 74.97949219 C1.875 72.9375 1.875 72.9375 5.625 72.25 C10.88373853 72.601233 14.09738437 75.50952283 17.875 78.9375 C18.48472656 79.46730469 19.09445312 79.99710937 19.72265625 80.54296875 C28.97279512 89.10188845 33.56786946 99.80800656 34.375 112.25 C34.42140625 113.69826172 34.42140625 113.69826172 34.46875 115.17578125 C34.95049539 118.45072345 35.88154167 120.30522889 37.875 122.9375 C40.84520062 125.01725033 42.90028643 125.12176603 46.4375 124.625 C47.20191406 124.52574219 47.96632813 124.42648438 48.75390625 124.32421875 C51.05259623 123.9566013 51.05259623 123.9566013 53.875 122.9375 C58.84530404 112.73529697 55.14482119 99.92751754 51.84375 89.76171875 C48.96505456 82.26349516 44.85262774 76.19935569 39.875 69.9375 C39.41609375 69.30199219 38.9571875 68.66648437 38.484375 68.01171875 C31.20810855 58.47805638 19.82086398 53.02314282 8.875 48.9375 C7.15976376 48.26740771 5.45063296 47.58133318 3.75 46.875 C3.04617188 46.59527344 2.34234375 46.31554687 1.6171875 46.02734375 C-0.65207078 44.60778532 -1.12218031 43.40806356 -2.125 40.9375 C-2.41210938 38.52734375 -2.41210938 38.52734375 -2.46875 35.875 C-2.49839844 34.91335937 -2.52804687 33.95171875 -2.55859375 32.9609375 C-2.60286458 30.9453125 -2.64713542 28.9296875 -2.69140625 26.9140625 C-2.72105469 25.95242187 -2.75070312 24.99078125 -2.78125 24 C-2.80928711 22.68708984 -2.80928711 22.68708984 -2.83789062 21.34765625 C-3.1447465 18.77173685 -3.74234823 17.12271308 -5.125 14.9375 C-7.84506631 13.86787562 -10.65360743 13.69357661 -13.5625 13.5625 C-14.30371094 13.51351562 -15.04492188 13.46453125 -15.80859375 13.4140625 C-19.606648 14.27230747 -20.87483119 15.77868417 -23.125 18.9375 C-23.79950837 22.6044612 -23.77921762 26.21712271 -23.75 29.9375 C-23.75 42.47422032 -23.75 42.47422032 -27.125 45.9375 C-29.64711878 47.10065559 -31.93751405 47.98656889 -34.5625 48.8125 C-53.27792936 55.30358338 -66.20586205 66.38579231 -75.375 83.9375 C-83.99296476 101.83988546 -84.34179948 121.34638337 -78.09375 140.01953125 C-71.24598294 158.04118849 -58.17407203 168.34017303 -41.125 176.07373047 C-37.01938288 177.84688395 -32.83062793 179.37861795 -28.6015625 180.83203125 C-26.125 181.9375 -26.125 181.9375 -24.125 184.9375 C-23.92039593 187.59856706 -23.83128734 190.15585056 -23.83447266 192.81787109 C-23.82775543 193.61982407 -23.82103821 194.42177704 -23.81411743 195.24803162 C-23.79510052 197.9023964 -23.79121134 200.55650881 -23.7890625 203.2109375 C-23.78263693 205.05555323 -23.77590875 206.90016793 -23.76889038 208.74478149 C-23.75690823 212.61340701 -23.7532105 216.48194317 -23.75439453 220.35058594 C-23.75459773 225.30619742 -23.72729935 230.26123546 -23.69285011 235.21671104 C-23.6706043 239.02744169 -23.66655628 242.83803385 -23.66761398 246.64882278 C-23.66525438 248.47566326 -23.65641066 250.30250734 -23.64094925 252.12928391 C-23.6213367 254.68604331 -23.62710824 257.24156012 -23.63916016 259.79833984 C-23.62792114 260.55176163 -23.61668213 261.30518341 -23.60510254 262.08143616 C-23.64817882 265.68052965 -24.04166627 267.79989053 -25.92098999 270.90322876 C-28.125 272.9375 -28.125 272.9375 -31.875 273.625 C-37.14701529 273.27288024 -40.32559249 270.35312897 -44.125 266.9375 C-44.71152344 266.47730469 -45.29804688 266.01710938 -45.90234375 265.54296875 C-54.52471519 258.1328128 -59.39744154 246.35989151 -60.4375 235.25 C-60.51613281 233.96738281 -60.59476563 232.68476563 -60.67578125 231.36328125 C-61.14889294 227.75529035 -61.95080623 225.82228393 -64.125 222.9375 C-68.65046406 220.36899337 -72.90106363 220.38151591 -77.875 221.625 C-80.23119662 222.7754331 -80.23119662 222.7754331 -81.4375 224.9375 C-84.93825924 240.21354031 -79.02558593 255.59326293 -71.54296875 268.7109375 C-70.15043019 270.86404461 -68.68936831 272.90678884 -67.125 274.9375 C-66.70089844 275.52402344 -66.27679688 276.11054688 -65.83984375 276.71484375 C-56.9685874 288.12074477 -44.23879343 293.67081894 -31.15869141 298.69238281 C-27.66887479 300.08325829 -26.26825297 300.72262055 -24.125 303.9375 C-23.88549805 306.20239258 -23.88549805 306.20239258 -23.88671875 308.83203125 C-23.87060547 309.78787109 -23.85449219 310.74371094 -23.83789062 311.72851562 C-23.82106256 313.73105586 -23.8157169 315.73372789 -23.82226562 317.73632812 C-23.71602064 324.09183246 -23.71602064 324.09183246 -20.8671875 329.609375 C-18.39937629 332.04092481 -18.39937629 332.04092481 -15.80859375 332.55859375 C-15.06738281 332.49800781 -14.32617188 332.43742187 -13.5625 332.375 C-12.44681641 332.31119141 -12.44681641 332.31119141 -11.30859375 332.24609375 C-10.58800781 332.14425781 -9.86742187 332.04242188 -9.125 331.9375 C-8.41472656 331.86660156 -7.70445312 331.79570312 -6.97265625 331.72265625 C-4.89186393 331.07548326 -4.89186393 331.07548326 -4.02441406 328.70874023 C-3.1109997 325.89436281 -2.88534501 323.75779765 -2.88671875 320.8125 C-2.87060547 319.85859375 -2.85449219 318.9046875 -2.83789062 317.921875 C-2.8209641 315.93235685 -2.81575522 313.9427045 -2.82226562 311.953125 C-2.6711685 304.73945566 -2.6711685 304.73945566 -0.08984375 300.94921875 C3.47782527 298.52846836 6.92854714 297.10344289 11 295.75 C16.65457474 293.82251488 16.65457474 293.82251488 21.875 290.9375 C25.92980401 290.32046461 27.41869977 290.61711899 30.8125 293 C32.875 295.9375 32.875 295.9375 33 299.5 C31.6491007 303.62774786 30.39650473 304.49728718 26.875 306.9375 C24.80326436 307.9252786 22.69672935 308.84318949 20.5625 309.6875 C18.95955078 310.32945312 18.95955078 310.32945312 17.32421875 310.984375 C16.51597656 311.29890625 15.70773437 311.6134375 14.875 311.9375 C14.84921875 312.74832031 14.8234375 313.55914062 14.796875 314.39453125 C14.24845891 325.10110906 12.48181814 334.39539741 4.76171875 342.27734375 C-1.87280274 348.11517322 -8.63115508 348.78075903 -17.26953125 348.3828125 C-24.20521575 347.5817304 -28.63431934 344.73427771 -33.4375 339.8125 C-39.96270142 331.37881348 -40.71665886 322.27509502 -40.125 311.9375 C-41.32125 311.6075 -42.5175 311.2775 -43.75 310.9375 C-63.13373097 304.34460091 -79.37141858 289.03358691 -88.6796875 270.9765625 C-93.72492564 260.36792662 -97.26055005 250.78711393 -98.125 238.9375 C-98.21910156 237.73738281 -98.31320313 236.53726563 -98.41015625 235.30078125 C-98.79095771 226.26895179 -97.41531809 219.67659613 -91.2578125 212.875 C-84.57954847 206.63848884 -78.3118651 204.32001905 -69.1875 204.59375 C-61.6655685 205.43804843 -55.66393126 208.32458595 -50.59375 213.96875 C-45.95295418 220.1893912 -44.67758289 226.06340127 -44.49609375 233.75 C-44.11128697 238.00063915 -44.11128697 238.00063915 -41.125 245.9375 C-40.795 228.4475 -40.465 210.9575 -40.125 192.9375 C-43.095 191.9475 -46.065 190.9575 -49.125 189.9375 C-51.66771614 188.76133079 -54.10769285 187.57994782 -56.5625 186.25 C-57.20646729 185.90259766 -57.85043457 185.55519531 -58.51391602 185.19726562 C-64.23304007 182.0259267 -69.26581563 178.32198607 -74.125 173.9375 C-75.16720703 173.01710938 -75.16720703 173.01710938 -76.23046875 172.078125 C-91.32584805 157.94628055 -97.54573438 139.32163146 -98.33984375 119.109375 C-98.97959309 94.40140871 -91.42646955 73.35077782 -74.3828125 55.23828125 C-73.63773438 54.47902344 -72.89265625 53.71976563 -72.125 52.9375 C-71.46242187 52.25042969 -70.79984375 51.56335938 -70.1171875 50.85546875 C-65.52984672 46.43383039 -60.50809721 43.19799491 -55 40.0625 C-54.330896 39.68085693 -53.66179199 39.29921387 -52.97241211 38.90600586 C-48.7654926 36.59948742 -44.78396004 35.08711352 -40.125 33.9375 C-40.17140625 32.95910156 -40.2178125 31.98070312 -40.265625 30.97265625 C-40.55774014 20.36261717 -39.36807851 12.4695202 -31.85546875 4.51171875 C-23.36723813 -3.21008021 -10.48902781 -5.35118199 0 0 Z " fill="#050401" transform="translate(269.125,83.0625)"/>
<path d="M0 0 C2.28566941 0.95377841 4.24073703 1.94591124 6.29785156 3.32250977 C7.02190186 3.80381348 7.74595215 4.28511719 8.49194336 4.78100586 C9.25418213 5.30259277 10.0164209 5.82417969 10.80175781 6.36157227 C11.5994458 6.90249512 12.39713379 7.44341797 13.21899414 8.00073242 C26.29328373 16.95916298 37.95698488 27.00075031 49.36425781 37.98657227 C50.15832031 38.73938477 50.95238281 39.49219727 51.77050781 40.26782227 C57.12061863 45.4480883 61.74786712 51.15250255 66.36425781 56.98657227 C67.14671875 57.95208008 67.92917969 58.91758789 68.73535156 59.91235352 C103.68904622 103.92604583 103.68904622 103.92604583 103.31860352 122.24414062 C101.8821063 126.37209489 99.07977286 128.80320592 95.99316406 131.81860352 C95.35563705 132.45521408 94.71811005 133.09182465 94.06126404 133.74772644 C92.71507965 135.08787971 91.36404859 136.42317975 90.00854492 137.75390625 C87.92728857 139.79855084 85.86258246 141.85885017 83.79980469 143.92211914 C82.4901997 145.22189696 81.17968373 146.52075769 79.86816406 147.81860352 C79.24728409 148.43725784 78.62640411 149.05591217 77.98670959 149.6933136 C73.59640173 153.98657227 73.59640173 153.98657227 71.36425781 153.98657227 C71.13351562 153.31303711 70.90277344 152.63950195 70.66503906 151.94555664 C66.25659621 139.16455731 61.84041888 126.60630482 55.32177734 114.73364258 C54.38543081 113.02520408 53.48182778 111.29894896 52.57910156 109.57250977 C43.58994038 92.96832668 31.71053415 78.27097076 18.36425781 64.98657227 C17.84041504 64.46015137 17.31657227 63.93373047 16.77685547 63.39135742 C2.95090905 49.63512898 -13.22192821 38.69347926 -30.63574219 29.98657227 C-28.98991933 25.84734339 -25.99851324 22.99117158 -22.92871094 19.87329102 C-22.36630203 19.29948196 -21.80389313 18.72567291 -21.22444153 18.13447571 C-20.03616521 16.92735305 -18.84499024 15.72307783 -17.65112305 14.52148438 C-15.82586727 12.6767254 -14.02302205 10.81175493 -12.21972656 8.94555664 C-11.06154592 7.77432348 -9.90208298 6.60435664 -8.74121094 5.43579102 C-7.93625435 4.59379402 -7.93625435 4.59379402 -7.11503601 3.73478699 C-3.3189871 -0.01690851 -3.3189871 -0.01690851 0 0 Z " fill="#FDE892" transform="translate(377.6357421875,48.013427734375)"/>
<path d="M0 0 C0.59425781 1.12535156 1.18851563 2.25070312 1.80078125 3.41015625 C15.6831187 29.29132644 34.45657897 51.38923703 58 69 C58.56058105 69.42667969 59.12116211 69.85335937 59.69873047 70.29296875 C79.08123507 85.00669487 100.8482127 94.80183594 124 102 C121.43829188 108.51288512 115.1782818 113.47184879 110.38061523 118.37451172 C109.08586936 119.70748668 107.80287953 121.0519827 106.53198242 122.40771484 C104.69202784 124.36941185 102.81837575 126.29238897 100.93359375 128.2109375 C100.37385361 128.82117767 99.81411346 129.43141785 99.2374115 130.06015015 C97.53487002 131.74538909 96.16354991 132.96583327 94 134 C90.75349432 133.9694446 88.02343089 133.13193765 85 132 C84.12093994 131.67974854 83.24187988 131.35949707 82.33618164 131.02954102 C81.61809326 130.69108154 80.90000488 130.35262207 80.16015625 130.00390625 C78.92084351 129.42189453 78.92084351 129.42189453 77.65649414 128.828125 C76.80047607 128.41046875 75.94445801 127.9928125 75.0625 127.5625 C74.15298584 127.12292969 73.24347168 126.68335938 72.30639648 126.23046875 C48.31438001 114.40873919 27.33369538 98.36129058 8 80 C7.17242187 79.21496094 6.34484375 78.42992187 5.4921875 77.62109375 C-0.15762548 72.11892397 -5.12137405 66.18893258 -10 60 C-10.804375 59.00097656 -11.60875 58.00195312 -12.4375 56.97265625 C-17.18722757 51.00946069 -21.56544338 44.85161574 -25.6875 38.4375 C-26.35736938 37.41910034 -26.35736938 37.41910034 -27.04077148 36.38012695 C-30.06383487 31.56051401 -30.06383487 31.56051401 -29.7686615 28.96868896 C-28.43433293 25.55121856 -25.63802387 23.23384876 -23.06640625 20.703125 C-22.47327133 20.10949158 -21.88013641 19.51585815 -21.26902771 18.90423584 C-20.01586931 17.65341498 -18.75902365 16.40627889 -17.4987793 15.16259766 C-15.56444041 13.25191667 -13.64382956 11.32819803 -11.72460938 9.40234375 C-10.5059997 8.18930865 -9.28662453 6.97704196 -8.06640625 5.765625 C-7.48927383 5.18758118 -6.91214142 4.60953735 -6.31752014 4.01397705 C-2.23103041 0 -2.23103041 0 0 0 Z " fill="#FDE892" transform="translate(78,347)"/>
<path d="M0 0 C22.50017953 7.55571892 43.27845586 20.11232451 60.38671875 36.52734375 C62.26984379 38.30913471 64.13739198 39.96730274 66.13671875 41.60546875 C69.90057965 44.75314506 72.87246403 48.233005 76 52 C76.43086914 52.50789063 76.86173828 53.01578125 77.30566406 53.5390625 C105.24692728 86.56928431 121.50116114 127.82257304 121.375 171.1875 C121.37312683 172.0228125 121.37125366 172.858125 121.36932373 173.71875 C121.12287093 224.68955972 101.55223955 270.5514855 66 307 C63.42228455 309.45060917 60.7343341 311.72717783 58 314 C57.17628906 314.73476563 56.35257812 315.46953125 55.50390625 316.2265625 C40.74225937 329.1250889 23.8079413 338.03307836 6 346 C5.67 345.34 5.34 344.68 5 344 C5.92039062 343.46632813 6.84078125 342.93265625 7.7890625 342.3828125 C19.93518517 335.26562782 31.45247135 327.70599986 41.7734375 318.07421875 C43.79952496 316.18675832 45.87896905 314.40379289 48 312.625 C81.50824185 283.20476365 101.62519959 236.7339792 106 193 C106.09810745 190.46091316 106.15302867 187.91984384 106.16796875 185.37890625 C106.17224884 184.68154358 106.17652893 183.98418091 106.18093872 183.26568604 C106.19085267 181.03122391 106.19100575 178.79697977 106.1875 176.5625 C106.18609512 175.41459488 106.18609512 175.41459488 106.18466187 174.24349976 C106.15572764 163.36722587 106.00490359 152.72101051 104 142 C103.8546582 141.16629883 103.70931641 140.33259766 103.55957031 139.47363281 C95.67668124 95.21302014 71.80231898 52.67773827 36 25 C35.26136719 24.37222656 34.52273438 23.74445313 33.76171875 23.09765625 C28.26220233 18.45298695 22.3773155 14.5435032 16.3125 10.6875 C15.50425781 10.17147217 14.69601562 9.65544434 13.86328125 9.1237793 C9.35813817 6.30297065 4.94974638 3.94146679 0 2 C0 1.34 0 0.68 0 0 Z " fill="#F28C00" transform="translate(320,82)"/>
<path d="M0 0 C0.99 0.495 0.99 0.495 2 1 C-3.77226329 5.24533192 -9.57537653 9.40733697 -15.5 13.4375 C-26.10707569 20.72069224 -35.68433044 29.15432062 -45 38 C-45.53415527 38.50547363 -46.06831055 39.01094727 -46.61865234 39.53173828 C-54.91527201 47.43879899 -62.18401383 55.7929322 -69 65 C-69.42909668 65.57363281 -69.85819336 66.14726563 -70.30029297 66.73828125 C-76.81327127 75.47815066 -82.58806652 84.54348991 -88 94 C-88.65613281 95.12277344 -89.31226563 96.24554688 -89.98828125 97.40234375 C-102.74684085 120.13252308 -111.65500631 146.31261593 -116 172 C-116.13390137 172.75345703 -116.26780273 173.50691406 -116.40576172 174.28320312 C-120.61580563 198.66262503 -120.47654352 224.51776488 -117 249 C-116.87109375 249.91894043 -116.7421875 250.83788086 -116.609375 251.78466797 C-113.01287796 276.49809731 -105.62653387 300.6613501 -94.1875 322.8984375 C-92.86891318 326.34237808 -92.59002154 327.6182548 -94 331 C-96.5625 333.8125 -96.5625 333.8125 -99 336 C-108.83815485 318.72381987 -116.79741964 300.21348985 -122 281 C-122.48339844 279.40285156 -122.48339844 279.40285156 -122.9765625 277.7734375 C-125.32192436 269.69894744 -126.84958852 261.60706111 -128.1875 253.3125 C-128.35443359 252.27963867 -128.52136719 251.24677734 -128.69335938 250.18261719 C-132.20863632 227.44904633 -132.46165436 203.76025836 -129 181 C-128.87641113 180.16017578 -128.75282227 179.32035156 -128.62548828 178.45507812 C-120.78085253 126.68999084 -95.81568305 77.37795569 -57.3125 41.625 C-54.61147178 38.96880213 -54.0178339 38.06294317 -52.9375 34.25 C-52.98951889 31.54501751 -53.29177628 29.56521977 -54 27 C-51.76175998 25.12981281 -49.51136473 23.27934568 -47.25 21.4375 C-46.29867187 20.63795898 -46.29867187 20.63795898 -45.328125 19.82226562 C-44.709375 19.32275391 -44.090625 18.82324219 -43.453125 18.30859375 C-42.88754883 17.84251709 -42.32197266 17.37644043 -41.73925781 16.89624023 C-40 16 -40 16 -37.95361328 16.30102539 C-37.3089209 16.53168701 -36.66422852 16.76234863 -36 17 C-33.00685382 17.96608753 -30.97742459 18.41592536 -28.02636719 17.16015625 C-25.74927608 15.85179551 -23.56281757 14.45267378 -21.375 13 C-19.77910212 11.98365817 -18.1827464 10.96803489 -16.5859375 9.953125 C-15.80831055 9.45103516 -15.03068359 8.94894531 -14.22949219 8.43164062 C-11.1862381 6.47745294 -8.10733136 4.60085597 -5 2.75 C-4.071875 2.18796875 -3.14375 1.6259375 -2.1875 1.046875 C-1.465625 0.70140625 -0.74375 0.3559375 0 0 Z " fill="#ECC900" transform="translate(146,41)"/>
<path d="M0 0 C-0.42152344 0.75925781 -0.84304687 1.51851563 -1.27734375 2.30078125 C-1.82519531 3.29464844 -2.37304688 4.28851563 -2.9375 5.3125 C-3.75541016 6.79169922 -3.75541016 6.79169922 -4.58984375 8.30078125 C-6.33853514 11.6479994 -7.03800706 13.49142929 -6.75390625 17.29296875 C-6.53090409 21.83038004 -6.5917108 24.66192586 -8 29 C-11.86460752 32.64740809 -17.18147373 34.32876077 -22.06347656 36.21191406 C-37.57078511 42.52275521 -51.17243289 58.8155709 -57.80566406 73.82275391 C-67.00601413 95.82429944 -68.28546966 120.57509097 -59.65893555 143.0949707 C-49.87753301 166.71922796 -30.44112251 177.43947176 -8 188 C-8 205.82 -8 223.64 -8 242 C-10.57227225 240.71386388 -10.6410204 239.86509778 -11.5625 237.1875 C-12.77620578 233.4208269 -13.19655551 230.00867237 -13.375 226.0625 C-13.78064485 219.9388229 -15.3244207 214.96120794 -19 210 C-20.21519686 209.12706611 -21.43287912 208.25758693 -22.65234375 207.390625 C-24.96873435 205.47875114 -25.88216637 204.50881782 -26.56640625 201.55419922 C-26.68811745 198.71477833 -26.6123707 195.96136429 -26.4375 193.125 C-26.40591797 192.15046875 -26.37433594 191.1759375 -26.34179688 190.171875 C-26.25965789 187.77811023 -26.14491673 185.39064832 -26 183 C-26.54825439 182.79431396 -27.09650879 182.58862793 -27.66137695 182.37670898 C-47.7002659 174.79300608 -66.87226109 165.31750236 -76.46484375 144.87890625 C-77.70633123 141.93891997 -78.87260345 138.98527851 -80 136 C-80.35191406 135.15179688 -80.70382813 134.30359375 -81.06640625 133.4296875 C-87.4677642 116.77008647 -85.20442158 96.02099712 -78.3046875 79.91015625 C-68.84171691 59.18713689 -53.19167705 43.93863477 -31.8046875 35.78125 C-29 35 -29 35 -25 35 C-25.0314209 34.38068604 -25.0628418 33.76137207 -25.09521484 33.12329102 C-25.22126788 30.27007782 -25.29838149 27.41745175 -25.375 24.5625 C-25.42527344 23.58861328 -25.47554687 22.61472656 -25.52734375 21.61132812 C-25.67531493 14.23743102 -24.01856238 9.48150759 -19 4 C-13.10034094 -0.5309802 -7.22348544 -0.47802477 0 0 Z " fill="#F38D00" transform="translate(237,88)"/>
<path d="M0 0 C14.73967006 14.56729394 25.12719535 34.80970223 33.5625 53.625 C34.05878906 54.73101562 34.55507813 55.83703125 35.06640625 56.9765625 C36.14446696 60.46785534 36.1971212 61.5733246 35 65 C33.08132645 67.48521589 30.87206202 69.64062736 28.62890625 71.83203125 C27.99137924 72.46864182 27.35385223 73.10525238 26.69700623 73.76115417 C25.35082183 75.10130745 23.99979077 76.43660748 22.64428711 77.76733398 C20.56303076 79.81197857 18.49832465 81.8722779 16.43554688 83.93554688 C15.12594189 85.2353247 13.81542591 86.53418543 12.50390625 87.83203125 C11.88302628 88.45068558 11.2621463 89.0693399 10.62245178 89.70674133 C6.23214392 94 6.23214392 94 4 94 C3.76925781 93.32646484 3.53851563 92.65292969 3.30078125 91.95898438 C-1.33937317 78.50620467 -6.10437297 65.46595815 -13 53 C-13.33386719 52.38592285 -13.66773438 51.7718457 -14.01171875 51.13916016 C-18.21615538 43.42901272 -22.7851871 36.07258999 -28 29 C-22.61359076 22.44622903 -16.64114873 16.52753365 -10.625 10.5625 C-9.59221405 9.53474017 -8.55966009 8.50674715 -7.52734375 7.47851562 C-5.02089713 4.98298402 -2.5113292 2.49061918 0 0 Z " fill="#FDE892" transform="translate(445,108)"/>
<path d="M0 0 C4.64433353 2.65390487 9.01160381 5.29586041 13.4375 8.25 C29.63296104 18.82398668 47.61834508 26.18171707 66 32 C63.43829188 38.51288512 57.1782818 43.47184879 52.38061523 48.37451172 C51.08586936 49.70748668 49.80287953 51.0519827 48.53198242 52.40771484 C46.69202784 54.36941185 44.81837575 56.29238897 42.93359375 58.2109375 C42.37385361 58.82117767 41.81411346 59.43141785 41.2374115 60.06015015 C39.53487002 61.74538909 38.16354991 62.96583327 36 64 C32.75349432 63.9694446 30.02343089 63.13193765 27 62 C26.12093994 61.67974854 25.24187988 61.35949707 24.33618164 61.02954102 C23.61809326 60.69108154 22.90000488 60.35262207 22.16015625 60.00390625 C21.33394775 59.61589844 20.50773926 59.22789062 19.65649414 58.828125 C18.37246704 58.20164062 18.37246704 58.20164062 17.0625 57.5625 C16.15298584 57.12292969 15.24347168 56.68335938 14.30639648 56.23046875 C2.26124209 50.29538789 -9.03182132 43.22910934 -20 35.5 C-20.58193115 35.09072266 -21.1638623 34.68144531 -21.76342773 34.25976562 C-24.45197264 32.3145315 -26.13422557 30.79866165 -28 28 C-18.76 18.76 -9.52 9.52 0 0 Z " fill="#FDE892" transform="translate(136,417)"/>
<path d="M0 0 C8.44765256 1.71493699 16.06164011 8.57488445 21.25 15.1875 C27.58866101 26.52788359 29.64899522 40.1306931 26.12109375 52.85546875 C21.57272162 65.03205245 15.24797145 76.00672683 3.25 82.1875 C0.25192594 82.85746068 -1.58812296 82.5890082 -4.75 82.1875 C-7.61603481 79.48350787 -8.65432692 77.801142 -9.2646637 73.88647461 C-9.27086227 72.63358643 -9.27706085 71.38069824 -9.28344727 70.08984375 C-9.29637062 69.04741013 -9.29637062 69.04741013 -9.30955505 67.98391724 C-9.33217306 65.69722767 -9.32548529 63.41176771 -9.31640625 61.125 C-9.32164343 59.52986285 -9.32792026 57.9347288 -9.33518982 56.33959961 C-9.34558601 53.00066528 -9.34104366 49.66215736 -9.32641602 46.32324219 C-9.30922136 42.04899665 -9.33273438 37.77609456 -9.36790562 33.5019989 C-9.38988765 30.20934174 -9.38843646 26.91700573 -9.3801403 23.6242981 C-9.37932136 22.04866054 -9.38617403 20.47299927 -9.40091133 18.89743042 C-9.41837586 16.69250365 -9.40380458 14.48998697 -9.38110352 12.28515625 C-9.38014175 11.03226807 -9.37917999 9.77937988 -9.37818909 8.48852539 C-8.32100144 2.93318649 -5.6308838 0.28154419 0 0 Z " fill="#060502" transform="translate(275.75,273.8125)"/>
<path d="M0 0 C2.84719244 2.69239058 3.90186143 4.36954045 4.50793457 8.26306152 C4.51111694 9.49818481 4.51429932 10.73330811 4.51757812 12.00585938 C4.5245874 12.69106155 4.53159668 13.37626373 4.53881836 14.08222961 C4.55635546 16.33648781 4.54479232 18.5894801 4.53125 20.84375 C4.53394618 22.41646566 4.53782966 23.98917968 4.54284668 25.56188965 C4.54873587 28.85375887 4.54019794 32.14519316 4.52148438 35.43701172 C4.4986946 39.6505775 4.51182087 43.86312411 4.53577423 48.07665253 C4.55024822 51.32297404 4.54561901 54.56905505 4.53526306 57.81538391 C4.53260017 59.36867901 4.53585015 60.92199615 4.54518127 62.4752655 C4.555374 64.64880974 4.53981116 66.82071786 4.51757812 68.99414062 C4.51280457 70.84682556 4.51280457 70.84682556 4.50793457 72.73693848 C3.90403179 76.61651676 2.76542226 78.25865616 0 81 C-3.0625 82.25 -3.0625 82.25 -7 82 C-10.93163317 80.02008143 -14.46396064 77.61291404 -18 75 C-19.30517578 74.04480469 -19.30517578 74.04480469 -20.63671875 73.0703125 C-23.11938536 70.89541448 -24.54881368 68.91372633 -26.1875 66.0625 C-26.67605469 65.22847656 -27.16460937 64.39445312 -27.66796875 63.53515625 C-33.36611795 52.69029164 -33.98554202 38.34566871 -30.4375 26.625 C-26.41577318 16.21084424 -19.1413278 7.91306224 -10.5 1 C-6.66142512 -0.53542995 -4.1417314 -0.52593415 0 0 Z " fill="#060502" transform="translate(241,156)"/>
<path d="M0 0 C-0.6496875 1.05574219 -0.6496875 1.05574219 -1.3125 2.1328125 C-5.9650044 10.38239207 -6.83265385 16.64549374 -6 26 C-5.92652344 27.11117188 -5.85304687 28.22234375 -5.77734375 29.3671875 C-3.5601022 51.4376609 8.61579076 70.31701866 25.125 84.625 C32.83533344 90.75623973 41.7929489 95.51672401 51 99 C51.02578125 99.81082031 51.0515625 100.62164062 51.078125 101.45703125 C51.56151751 110.8941713 53.68463073 118.62083006 58 127 C54.27302644 128.86348678 49.97827229 127.76344656 46 127 C40.69439259 125.08158828 37.71493258 121.90776274 35 117 C34.01956036 114.05868109 33.88378798 112.17498335 33.90234375 109.11328125 C33.90556641 108.17548828 33.90878906 107.23769531 33.91210938 106.27148438 C33.92467773 104.80678711 33.92467773 104.80678711 33.9375 103.3125 C33.94201172 102.32443359 33.94652344 101.33636719 33.95117188 100.31835938 C33.96295697 97.87884526 33.97940989 95.43945311 34 93 C33.16033691 92.84325806 33.16033691 92.84325806 32.30371094 92.68334961 C14.44888753 89.07667528 -0.65033934 77.93701523 -11.0078125 63.140625 C-19.91339193 49.10124096 -27.52593175 31.00146369 -25 14 C-23.47007264 7.9205518 -19.92932104 4.30943036 -14.66015625 1.0546875 C-9.86989043 -0.84453683 -5.05638572 -0.46200479 0 0 Z " fill="#F38D00" transform="translate(178,296)"/>
<path d="M0 0 C3.91463794 1.80168799 6.4495006 4.34048565 9.375 7.4375 C15.72601699 13.99740559 22.71225149 19.52340793 30 25 C28.36221955 29.19625909 25.26676818 31.98676785 22.1171875 35.078125 C21.54292023 35.64956238 20.96865295 36.22099976 20.37698364 36.80975342 C18.5476419 38.62792945 16.71145807 40.43901492 14.875 42.25 C13.63105226 43.48391329 12.3875573 44.71828322 11.14453125 45.953125 C8.10157633 48.97406743 5.05246746 51.98867092 2 55 C-3.53492484 51.01474486 -8.61948893 46.75758575 -13.5625 42.0625 C-14.18318359 41.48048828 -14.80386719 40.89847656 -15.44335938 40.29882812 C-19.71123244 36.28017392 -23.87648264 32.16633027 -28 28 C-18.66666667 18.66666667 -9.33333333 9.33333333 0 0 Z " fill="#FEDD4F" transform="translate(106,391)"/>
<path d="M0 0 C10.56742609 8.72961286 20.37215168 18.55822751 28 30 C18.76 39.24 9.52 48.48 0 58 C-3.45871513 56.84709496 -3.92575343 56.06551711 -6 53.1875 C-12.26878081 44.85574461 -19.53340444 37.26479568 -27 30 C-25.40247219 26.01295714 -22.60944346 23.3698311 -19.58984375 20.4296875 C-19.06234024 19.90738556 -18.53483673 19.38508362 -17.99134827 18.84695435 C-16.3114287 17.18479666 -14.62495728 15.52950195 -12.9375 13.875 C-11.24736984 12.21249027 -9.5587228 10.54854046 -7.87294006 8.88162231 C-6.82509029 7.8460278 -5.77457886 6.81311817 -4.72117615 5.78317261 C-2.01638571 3.15409686 -2.01638571 3.15409686 0 0 Z " fill="#FDDC4F" transform="translate(418,78)"/>
<path d="M0 0 C3.4923063 1.46351639 5.37492632 3.31722094 7.8125 6.1875 C14.18693506 13.47104073 21.11481922 20.2033527 28 27 C27.34 28.32 26.68 29.64 26 31 C20.46507516 27.01474486 15.38051107 22.75758575 10.4375 18.0625 C9.81681641 17.48048828 9.19613281 16.89847656 8.55664062 16.29882812 C4.28876756 12.28017392 0.12351736 8.16633027 -4 4 C-2.68 2.68 -1.36 1.36 0 0 Z " fill="#E8C702" transform="translate(82,415)"/>
<path d="M0 0 C4.53269441 4.53269441 5.02381574 8.53244239 5.375 14.75 C5.86969256 21.97251137 7.99029877 27.98544815 12 34 C8.04 34 4.08 34 0 34 C0 22.78 0 11.56 0 0 Z " fill="#EC8800" transform="translate(283,182)"/>
<path d="M0 0 C0.33 0 0.66 0 1 0 C1 10.89 1 21.78 1 33 C-4.53229777 25.62360297 -4.93603122 18.04467374 -4 9 C-2.98403222 5.78865837 -1.68563043 2.91222757 0 0 Z " fill="#E78500" transform="translate(228,182)"/>
<path d="M0 0 C4.45049842 4.45049842 5.28980945 7.97785284 5.3125 14.1875 C5.22533734 20.08103676 4.50991336 25.61174564 2 31 C1.34 31.33 0.68 31.66 0 32 C0 21.44 0 10.88 0 0 Z " fill="#E88600" transform="translate(283,298)"/>
<path d="M0 0 C3.96 0 7.92 0 12 0 C10.09186389 3.81627222 8.43300737 5.8073828 5.4375 8.75 C4.22900391 9.94882813 4.22900391 9.94882813 2.99609375 11.171875 C1 13 1 13 0 13 C0 8.71 0 4.42 0 0 Z " fill="#FEB900" transform="translate(283,216)"/>
<path d="M0 0 C0.66 0.33 1.32 0.66 2 1 C0.22970554 2.29240512 -1.54125498 3.58389793 -3.3125 4.875 C-4.29863281 5.59429687 -5.28476563 6.31359375 -6.30078125 7.0546875 C-8.17523115 8.4055935 -10.07752993 9.71835329 -12 11 C-14.1875 10.625 -14.1875 10.625 -16 10 C-12.77333979 7.47478766 -9.39568033 5.34337749 -5.875 3.25 C-4.29332031 2.29867187 -4.29332031 2.29867187 -2.6796875 1.328125 C-1.79539063 0.88984375 -0.91109375 0.4515625 0 0 Z " fill="#E1C004" transform="translate(146,41)"/>
</svg>
